<svg width="33" height="33" viewBox="0 0 33 33" fill="none" xmlns="http://www.w3.org/2000/svg">
<path d="M23.7215 17.1737C23.331 20.4256 21.2011 21.725 20.2813 22.6682C19.36 23.6142 19.525 23.8026 19.5869 25.19C19.5972 25.3616 19.5723 25.5336 19.5136 25.6952C19.455 25.8569 19.3638 26.0048 19.2458 26.1299C19.1278 26.255 18.9855 26.3546 18.8275 26.4226C18.6696 26.4905 18.4993 26.5254 18.3274 26.5251H14.6726C14.5008 26.5248 14.3308 26.4895 14.1731 26.4214C14.0153 26.3532 13.8731 26.2536 13.7551 26.1287C13.6371 26.0037 13.5458 25.8561 13.4868 25.6947C13.4278 25.5333 13.4022 25.3616 13.4118 25.19C13.4118 23.8287 13.5383 23.5125 12.7188 22.6682C11.6738 21.6232 9.21526 20.1479 9.21526 16.0902C9.20898 15.0824 9.41157 14.0841 9.81024 13.1584C10.2089 12.2327 10.795 11.3997 11.5317 10.7117C12.2683 10.0238 13.1394 9.49592 14.0902 9.16138C15.0409 8.82684 16.0507 8.69288 17.0558 8.76795C18.0609 8.84302 19.0395 9.1255 19.93 9.59757C20.8205 10.0696 21.6036 10.7211 22.2298 11.5108C22.8561 12.3005 23.3119 13.2114 23.5687 14.1861C23.8254 15.1607 23.8774 16.178 23.7215 17.1737Z" stroke="#CFEDFF" stroke-width="1.5" stroke-linecap="round" stroke-linejoin="round"/>
<path d="M14.3825 26.4495V28.5285C14.3825 29.0964 14.6988 29.5625 15.0879 29.5625H17.9108C18.3026 29.5625 18.6175 29.095 18.6175 28.5285V26.4495M15.4275 11.957C14.6156 11.9574 13.8371 12.2801 13.2631 12.8544C12.6892 13.4286 12.3668 14.2072 12.3668 15.0191M26.5815 16.368H29.1033M24.0433 8.1015L25.8321 6.31262M25.4183 23.375L27.2071 25.1625M16.5 3.26838V5.3075M7.20501 6.31125L8.98151 8.1015M5.83001 25.1625L7.60651 23.375M6.41851 16.368H3.89813" stroke="#CFEDFF" stroke-width="1.5" stroke-linecap="round" stroke-linejoin="round"/>
</svg>
